<mxfile host="app.diagrams.net" modified="2021-09-06T22:37:28.500Z" agent="5.0 (Windows NT 10.0; Win64; x64) AppleWebKit/537.36 (KHTML, like Gecko) Chrome/93.0.4577.63 Safari/537.36" etag="SZ_G5jxRFVzjTsHR-dXR" version="15.0.6" type="github" pages="4">
  <diagram id="xCoged-vUTL7jiI4qW3H" name="CLIENTS">
    <mxGraphModel dx="684" dy="1572" grid="1" gridSize="10" guides="1" tooltips="1" connect="1" arrows="1" fold="1" page="1" pageScale="1" pageWidth="850" pageHeight="1100" math="0" shadow="0">
      <root>
        <mxCell id="0" />
        <mxCell id="1" parent="0" />
        <mxCell id="f1c7EMjEffJ2syLSifQz-1" value="&lt;b&gt;CLIENT&lt;/b&gt;" style="strokeWidth=2;html=1;shape=mxgraph.flowchart.start_1;whiteSpace=wrap;strokeColor=#82b366;fillColor=#d5e8d4;" vertex="1" parent="1">
          <mxGeometry x="322" y="-1000" width="145" height="90" as="geometry" />
        </mxCell>
        <mxCell id="f1c7EMjEffJ2syLSifQz-2" value="" style="strokeWidth=2;html=1;shape=mxgraph.flowchart.annotation_2;align=left;labelPosition=right;pointerEvents=1;rotation=90;strokeColor=#7A7A7A;" vertex="1" parent="1">
          <mxGeometry x="374.88" y="-1000.62" width="50" height="391.25" as="geometry" />
        </mxCell>
        <mxCell id="f1c7EMjEffJ2syLSifQz-3" value="&lt;b&gt;&amp;nbsp;ORDER&lt;br&gt;BY&lt;br&gt;AMOUNT&lt;/b&gt;" style="rounded=1;whiteSpace=wrap;html=1;absoluteArcSize=1;arcSize=14;strokeWidth=2;strokeColor=#666666;fillColor=#f5f5f5;fontColor=#333333;" vertex="1" parent="1">
          <mxGeometry x="150" y="-780" width="100" height="60" as="geometry" />
        </mxCell>
        <mxCell id="f1c7EMjEffJ2syLSifQz-4" value="&lt;b&gt;&lt;span&gt;&amp;nbsp;ORDER&lt;/span&gt;&lt;br&gt;&lt;span&gt;BY&lt;/span&gt;&lt;br&gt;WEIGHT/KILOS&lt;/b&gt;" style="rounded=1;whiteSpace=wrap;html=1;absoluteArcSize=1;arcSize=14;strokeWidth=2;strokeColor=#666666;fillColor=#f5f5f5;fontColor=#333333;" vertex="1" parent="1">
          <mxGeometry x="550" y="-780" width="100" height="57" as="geometry" />
        </mxCell>
        <mxCell id="f1c7EMjEffJ2syLSifQz-9" value="" style="endArrow=classic;html=1;strokeColor=#4D4D4D;exitX=0.5;exitY=1;exitDx=0;exitDy=0;exitPerimeter=0;strokeWidth=2;" edge="1" parent="1">
          <mxGeometry width="50" height="50" relative="1" as="geometry">
            <mxPoint x="393.5" y="-910" as="sourcePoint" />
            <mxPoint x="394" y="-860" as="targetPoint" />
          </mxGeometry>
        </mxCell>
        <mxCell id="f1c7EMjEffJ2syLSifQz-10" value="&lt;b&gt;MAKE A &lt;br&gt;REQUEST/&lt;br&gt;ORDER&lt;br&gt;&lt;/b&gt;" style="rhombus;whiteSpace=wrap;html=1;strokeColor=#b85450;strokeWidth=2;fillColor=#f8cecc;" vertex="1" parent="1">
          <mxGeometry x="333" y="-860" width="123" height="110" as="geometry" />
        </mxCell>
        <mxCell id="f1c7EMjEffJ2syLSifQz-11" value="" style="endArrow=classic;html=1;exitX=0.5;exitY=1;exitDx=0;exitDy=0;strokeWidth=2;strokeColor=#7A7A7A;" edge="1" parent="1" source="f1c7EMjEffJ2syLSifQz-10">
          <mxGeometry width="50" height="50" relative="1" as="geometry">
            <mxPoint x="320" y="-670" as="sourcePoint" />
            <mxPoint x="395" y="-680" as="targetPoint" />
          </mxGeometry>
        </mxCell>
        <mxCell id="f1c7EMjEffJ2syLSifQz-12" value="&lt;b&gt;CALL&lt;/b&gt;" style="strokeWidth=2;html=1;shape=mxgraph.flowchart.start_1;whiteSpace=wrap;strokeColor=#82b366;fillColor=#d5e8d4;" vertex="1" parent="1">
          <mxGeometry x="322" y="-680" width="145" height="90" as="geometry" />
        </mxCell>
        <mxCell id="f1c7EMjEffJ2syLSifQz-13" value="" style="endArrow=classic;html=1;strokeColor=#4D4D4D;exitX=0.5;exitY=1;exitDx=0;exitDy=0;" edge="1" parent="1" source="f1c7EMjEffJ2syLSifQz-4">
          <mxGeometry width="50" height="50" relative="1" as="geometry">
            <mxPoint x="560" y="-560" as="sourcePoint" />
            <mxPoint x="600" y="-640" as="targetPoint" />
          </mxGeometry>
        </mxCell>
        <mxCell id="f1c7EMjEffJ2syLSifQz-14" value="" style="endArrow=classic;html=1;strokeColor=#4D4D4D;exitX=0.5;exitY=1;exitDx=0;exitDy=0;" edge="1" parent="1">
          <mxGeometry width="50" height="50" relative="1" as="geometry">
            <mxPoint x="200" y="-719" as="sourcePoint" />
            <mxPoint x="200" y="-636" as="targetPoint" />
          </mxGeometry>
        </mxCell>
        <mxCell id="f1c7EMjEffJ2syLSifQz-15" value="&lt;b&gt;ENTER &lt;br&gt;AMOUNT&lt;/b&gt;" style="rounded=1;whiteSpace=wrap;html=1;absoluteArcSize=1;arcSize=14;strokeWidth=2;strokeColor=#666666;fillColor=#f5f5f5;fontColor=#333333;" vertex="1" parent="1">
          <mxGeometry x="150" y="-636" width="100" height="60" as="geometry" />
        </mxCell>
        <mxCell id="f1c7EMjEffJ2syLSifQz-16" value="&lt;b&gt;SELECT&lt;br&gt;CYLINDER&lt;/b&gt;" style="rounded=1;whiteSpace=wrap;html=1;absoluteArcSize=1;arcSize=14;strokeWidth=2;strokeColor=#666666;fillColor=#f5f5f5;fontColor=#333333;" vertex="1" parent="1">
          <mxGeometry x="550" y="-639" width="100" height="60" as="geometry" />
        </mxCell>
        <mxCell id="f1c7EMjEffJ2syLSifQz-17" value="&lt;b&gt;ENTER USER&amp;nbsp;&lt;br&gt;INFORMATION/&lt;br&gt;DETAILS&lt;/b&gt;" style="shape=document;whiteSpace=wrap;html=1;boundedLbl=1;strokeColor=#36393d;strokeWidth=2;fillColor=#cdeb8b;" vertex="1" parent="1">
          <mxGeometry x="327.5" y="-500" width="134" height="90" as="geometry" />
        </mxCell>
        <mxCell id="f1c7EMjEffJ2syLSifQz-19" value="" style="endArrow=classic;html=1;strokeColor=#4D4D4D;edgeStyle=orthogonalEdgeStyle;exitX=0.5;exitY=1;exitDx=0;exitDy=0;entryX=1;entryY=0.5;entryDx=0;entryDy=0;" edge="1" parent="1" source="f1c7EMjEffJ2syLSifQz-16" target="f1c7EMjEffJ2syLSifQz-17">
          <mxGeometry width="50" height="50" relative="1" as="geometry">
            <mxPoint x="550" y="-460" as="sourcePoint" />
            <mxPoint x="490" y="-460" as="targetPoint" />
            <Array as="points">
              <mxPoint x="600" y="-455" />
            </Array>
          </mxGeometry>
        </mxCell>
        <mxCell id="f1c7EMjEffJ2syLSifQz-20" value="" style="endArrow=classic;html=1;strokeColor=#4D4D4D;edgeStyle=orthogonalEdgeStyle;exitX=0.5;exitY=1;exitDx=0;exitDy=0;entryX=0;entryY=0.5;entryDx=0;entryDy=0;" edge="1" parent="1" source="f1c7EMjEffJ2syLSifQz-15" target="f1c7EMjEffJ2syLSifQz-17">
          <mxGeometry width="50" height="50" relative="1" as="geometry">
            <mxPoint x="208.5" y="-540" as="sourcePoint" />
            <mxPoint x="70" y="-416" as="targetPoint" />
            <Array as="points">
              <mxPoint x="200" y="-455" />
            </Array>
          </mxGeometry>
        </mxCell>
        <mxCell id="f1c7EMjEffJ2syLSifQz-21" value="&lt;b&gt;SELECT&amp;nbsp;&lt;br&gt;PAYMENT&lt;br&gt;METHOD&lt;br&gt;&lt;/b&gt;" style="rhombus;whiteSpace=wrap;html=1;strokeColor=#b85450;strokeWidth=2;fillColor=#f8cecc;" vertex="1" parent="1">
          <mxGeometry x="333" y="-334" width="123" height="110" as="geometry" />
        </mxCell>
        <mxCell id="f1c7EMjEffJ2syLSifQz-22" value="" style="endArrow=classic;html=1;entryX=0.5;entryY=0;entryDx=0;entryDy=0;exitX=0.5;exitY=1;exitDx=0;exitDy=0;exitPerimeter=0;strokeWidth=2;strokeColor=#7A7A7A;" edge="1" parent="1">
          <mxGeometry width="50" height="50" relative="1" as="geometry">
            <mxPoint x="394" y="-423" as="sourcePoint" />
            <mxPoint x="394" y="-333" as="targetPoint" />
          </mxGeometry>
        </mxCell>
        <mxCell id="f1c7EMjEffJ2syLSifQz-24" value="" style="strokeWidth=2;html=1;shape=mxgraph.flowchart.annotation_2;align=left;labelPosition=right;pointerEvents=1;rotation=90;strokeColor=#7A7A7A;" vertex="1" parent="1">
          <mxGeometry x="369.38" y="-395" width="50" height="391.25" as="geometry" />
        </mxCell>
        <mxCell id="f1c7EMjEffJ2syLSifQz-26" value="&lt;span&gt;&lt;b&gt;PAY WITH MOMO/&lt;br&gt;CARD/ VISA&lt;/b&gt;&lt;/span&gt;" style="rounded=1;whiteSpace=wrap;html=1;absoluteArcSize=1;arcSize=14;strokeWidth=2;strokeColor=#36393d;fillColor=#eeeeee;" vertex="1" parent="1">
          <mxGeometry x="545.5" y="-174.38" width="100" height="57" as="geometry" />
        </mxCell>
        <mxCell id="f1c7EMjEffJ2syLSifQz-27" value="" style="endArrow=classic;html=1;strokeColor=#4D4D4D;exitX=0.5;exitY=1;exitDx=0;exitDy=0;edgeStyle=orthogonalEdgeStyle;entryX=1;entryY=0.5;entryDx=0;entryDy=0;entryPerimeter=0;" edge="1" parent="1" source="f1c7EMjEffJ2syLSifQz-26" target="f1c7EMjEffJ2syLSifQz-33">
          <mxGeometry width="50" height="50" relative="1" as="geometry">
            <mxPoint x="555.5" y="45.620000000000005" as="sourcePoint" />
            <mxPoint x="480" y="-51" as="targetPoint" />
            <Array as="points">
              <mxPoint x="596" y="-45" />
            </Array>
          </mxGeometry>
        </mxCell>
        <mxCell id="f1c7EMjEffJ2syLSifQz-33" value="&lt;b&gt;CONFIRM&lt;br&gt;RECEIVED&lt;br&gt;ORDER/&lt;br&gt;REQUEST&lt;/b&gt;" style="strokeWidth=2;html=1;shape=mxgraph.flowchart.start_1;whiteSpace=wrap;strokeColor=#82b366;fillColor=#d5e8d4;" vertex="1" parent="1">
          <mxGeometry x="328" y="-90" width="145" height="90" as="geometry" />
        </mxCell>
        <mxCell id="f1c7EMjEffJ2syLSifQz-37" value="&lt;b&gt;PAY WITH&lt;br&gt;CASH&lt;/b&gt;" style="strokeWidth=2;html=1;shape=mxgraph.flowchart.start_1;whiteSpace=wrap;strokeColor=#82b366;fillColor=#d5e8d4;" vertex="1" parent="1">
          <mxGeometry x="127.5" y="-90" width="145" height="90" as="geometry" />
        </mxCell>
        <mxCell id="f1c7EMjEffJ2syLSifQz-40" value="" style="endArrow=classic;html=1;strokeColor=#7A7A7A;strokeWidth=2;exitX=1;exitY=1;exitDx=0;exitDy=0;exitPerimeter=0;" edge="1" parent="1" source="f1c7EMjEffJ2syLSifQz-24" target="f1c7EMjEffJ2syLSifQz-37">
          <mxGeometry width="50" height="50" relative="1" as="geometry">
            <mxPoint x="360" y="-120" as="sourcePoint" />
            <mxPoint x="410" y="-170" as="targetPoint" />
          </mxGeometry>
        </mxCell>
      </root>
    </mxGraphModel>
  </diagram>
  <diagram id="bdWVIDOe9BfW4aaq4F7V" name="LOGISTICS">
    <mxGraphModel dx="821" dy="1666" grid="1" gridSize="10" guides="1" tooltips="1" connect="1" arrows="1" fold="1" page="1" pageScale="1" pageWidth="850" pageHeight="1100" math="0" shadow="0">
      <root>
        <mxCell id="ABs1m1EYm6QhikZXdG5O-0" />
        <mxCell id="ABs1m1EYm6QhikZXdG5O-1" parent="ABs1m1EYm6QhikZXdG5O-0" />
        <mxCell id="2gCfPx3A2Bh5wN1fhKjH-0" value="&lt;b&gt;CREATE&lt;/b&gt;" style="strokeWidth=2;html=1;shape=mxgraph.flowchart.start_1;whiteSpace=wrap;strokeColor=#82b366;fillColor=#d5e8d4;" vertex="1" parent="ABs1m1EYm6QhikZXdG5O-1">
          <mxGeometry x="322" y="-1000" width="145" height="90" as="geometry" />
        </mxCell>
        <mxCell id="FU6nL22bVkH6uYNdW4D_-0" value="" style="endArrow=classic;html=1;exitX=0.5;exitY=1;exitDx=0;exitDy=0;strokeWidth=2;strokeColor=#7A7A7A;" edge="1" parent="ABs1m1EYm6QhikZXdG5O-1">
          <mxGeometry width="50" height="50" relative="1" as="geometry">
            <mxPoint x="394" y="-910" as="sourcePoint" />
            <mxPoint x="394.5" y="-840.0000000000001" as="targetPoint" />
          </mxGeometry>
        </mxCell>
        <mxCell id="oSIKQgyCPRjBVZtWbgUz-2" style="edgeStyle=orthogonalEdgeStyle;rounded=0;orthogonalLoop=1;jettySize=auto;html=1;exitX=1;exitY=1;exitDx=0;exitDy=0;exitPerimeter=0;strokeColor=#7A7A7A;strokeWidth=2;" edge="1" parent="ABs1m1EYm6QhikZXdG5O-1" source="oSIKQgyCPRjBVZtWbgUz-0">
          <mxGeometry relative="1" as="geometry">
            <mxPoint x="204" y="-670" as="targetPoint" />
          </mxGeometry>
        </mxCell>
        <mxCell id="oSIKQgyCPRjBVZtWbgUz-3" style="edgeStyle=orthogonalEdgeStyle;rounded=0;orthogonalLoop=1;jettySize=auto;html=1;exitX=1;exitY=0;exitDx=0;exitDy=0;exitPerimeter=0;strokeColor=#7A7A7A;strokeWidth=2;" edge="1" parent="ABs1m1EYm6QhikZXdG5O-1" source="oSIKQgyCPRjBVZtWbgUz-0">
          <mxGeometry relative="1" as="geometry">
            <mxPoint x="596" y="-670" as="targetPoint" />
          </mxGeometry>
        </mxCell>
        <mxCell id="oSIKQgyCPRjBVZtWbgUz-0" value="" style="strokeWidth=2;html=1;shape=mxgraph.flowchart.annotation_2;align=left;labelPosition=right;pointerEvents=1;rotation=90;strokeColor=#7A7A7A;" vertex="1" parent="ABs1m1EYm6QhikZXdG5O-1">
          <mxGeometry x="374.88" y="-982.62" width="50" height="391.25" as="geometry" />
        </mxCell>
        <mxCell id="oSIKQgyCPRjBVZtWbgUz-1" value="&lt;span style=&quot;color: rgb(51 , 51 , 51)&quot;&gt;&lt;b&gt;RECIEVES&amp;nbsp;&lt;br&gt;ORDER&lt;br&gt;NOTIFICATION/&lt;br&gt;SMS&lt;/b&gt;&lt;/span&gt;&lt;b&gt;&lt;br&gt;&lt;/b&gt;" style="rhombus;whiteSpace=wrap;html=1;strokeColor=#b85450;strokeWidth=2;fillColor=#f8cecc;" vertex="1" parent="ABs1m1EYm6QhikZXdG5O-1">
          <mxGeometry x="333" y="-842" width="123" height="110" as="geometry" />
        </mxCell>
        <mxCell id="oSIKQgyCPRjBVZtWbgUz-4" value="&lt;b&gt;REJECT ORDER&lt;/b&gt;" style="strokeWidth=2;html=1;shape=mxgraph.flowchart.start_1;whiteSpace=wrap;strokeColor=#82b366;fillColor=#d5e8d4;" vertex="1" parent="ABs1m1EYm6QhikZXdG5O-1">
          <mxGeometry x="132" y="-670" width="145" height="90" as="geometry" />
        </mxCell>
        <mxCell id="TJus-CSax4opOKTv6zT9-0" value="&lt;b&gt;ACCEPT&lt;br&gt;ORDER&lt;/b&gt;" style="rounded=1;whiteSpace=wrap;html=1;absoluteArcSize=1;arcSize=14;strokeWidth=2;strokeColor=#666666;fillColor=#f5f5f5;fontColor=#333333;" vertex="1" parent="ABs1m1EYm6QhikZXdG5O-1">
          <mxGeometry x="529" y="-670" width="130" height="80" as="geometry" />
        </mxCell>
        <mxCell id="TJus-CSax4opOKTv6zT9-1" value="&lt;b&gt;CONTACT&amp;nbsp;&lt;br&gt;&amp;nbsp;CLIENT&lt;/b&gt;" style="rounded=1;whiteSpace=wrap;html=1;absoluteArcSize=1;arcSize=14;strokeWidth=2;strokeColor=#666666;fillColor=#f5f5f5;fontColor=#333333;" vertex="1" parent="ABs1m1EYm6QhikZXdG5O-1">
          <mxGeometry x="329.5" y="-520" width="130" height="80" as="geometry" />
        </mxCell>
        <mxCell id="TJus-CSax4opOKTv6zT9-4" value="" style="endArrow=classic;html=1;strokeColor=#7A7A7A;strokeWidth=2;exitX=0.5;exitY=1;exitDx=0;exitDy=0;edgeStyle=orthogonalEdgeStyle;" edge="1" parent="ABs1m1EYm6QhikZXdG5O-1" source="TJus-CSax4opOKTv6zT9-0">
          <mxGeometry width="50" height="50" relative="1" as="geometry">
            <mxPoint x="610" y="-410" as="sourcePoint" />
            <mxPoint x="460" y="-480" as="targetPoint" />
            <Array as="points">
              <mxPoint x="594" y="-480" />
            </Array>
          </mxGeometry>
        </mxCell>
        <mxCell id="TJus-CSax4opOKTv6zT9-5" value="&lt;b style=&quot;font-size: 11px&quot;&gt;ENTER CONFIRMATION&lt;br&gt;CODE FROM CLIENT&lt;br&gt;&lt;/b&gt;" style="strokeWidth=2;html=1;shape=mxgraph.flowchart.start_1;whiteSpace=wrap;strokeColor=#82b366;fillColor=#d5e8d4;" vertex="1" parent="ABs1m1EYm6QhikZXdG5O-1">
          <mxGeometry x="321.38" y="-330" width="145" height="90" as="geometry" />
        </mxCell>
        <mxCell id="TJus-CSax4opOKTv6zT9-6" value="" style="endArrow=classic;html=1;strokeColor=#7A7A7A;strokeWidth=2;exitX=0.5;exitY=1;exitDx=0;exitDy=0;" edge="1" parent="ABs1m1EYm6QhikZXdG5O-1" source="TJus-CSax4opOKTv6zT9-1">
          <mxGeometry width="50" height="50" relative="1" as="geometry">
            <mxPoint x="380" y="-390" as="sourcePoint" />
            <mxPoint x="395" y="-330" as="targetPoint" />
          </mxGeometry>
        </mxCell>
      </root>
    </mxGraphModel>
  </diagram>
  <diagram id="LQlMiDDZaRcl-IkR97Nl" name="VENDOR">
    <mxGraphModel dx="821" dy="566" grid="1" gridSize="10" guides="1" tooltips="1" connect="1" arrows="1" fold="1" page="1" pageScale="1" pageWidth="850" pageHeight="1100" math="0" shadow="0">
      <root>
        <mxCell id="CSjwsRcj_UYh5J-ysS8f-0" />
        <mxCell id="CSjwsRcj_UYh5J-ysS8f-1" parent="CSjwsRcj_UYh5J-ysS8f-0" />
      </root>
    </mxGraphModel>
  </diagram>
  <diagram id="ELeFilz7kvmu6E-kqcfU" name="ADMIN">
    <mxGraphModel dx="821" dy="566" grid="1" gridSize="10" guides="1" tooltips="1" connect="1" arrows="1" fold="1" page="1" pageScale="1" pageWidth="850" pageHeight="1100" math="0" shadow="0">
      <root>
        <mxCell id="bPknLOV3aVRd8i4x146d-0" />
        <mxCell id="bPknLOV3aVRd8i4x146d-1" parent="bPknLOV3aVRd8i4x146d-0" />
      </root>
    </mxGraphModel>
  </diagram>
</mxfile>
